<svg height="464pt" viewBox="-48 0 464 464" width="464pt" xmlns="http://www.w3.org/2000/svg"><path d="m0 464h368v-464h-288l-80 80zm0 0" fill="#dbdfe0"/><g fill="#4398d1"><path d="m72 160v13.601562l-14.65625 21.984376c-1.792969 2.6875-1.792969 6.191406 0 8.878906l14.65625 21.933594v13.601562c0 13.253906 10.746094 24 24 24h16v-16h-16c-4.417969 0-8-3.582031-8-8v-16c-.003906-1.578125-.46875-3.125-1.34375-4.441406l-13.054688-19.558594 13.039063-19.558594c.878906-1.316406 1.351563-2.859375 1.359375-4.441406v-16c0-4.417969 3.582031-8 8-8h16v-16h-16c-13.253906 0-24 10.746094-24 24zm0 0"/><path d="m310.65625 195.558594-14.65625-21.957032v-13.601562c0-13.253906-10.746094-24-24-24h-16v16h16c4.417969 0 8 3.582031 8 8v16c.003906 1.578125.46875 3.125 1.34375 4.441406l13.054688 19.558594-13.039063 19.558594c-.878906 1.316406-1.351563 2.859375-1.359375 4.441406v16c0 4.417969-3.582031 8-8 8h-16v16h16c13.253906 0 24-10.746094 24-24v-13.601562l14.65625-21.984376c1.78125-2.679687 1.78125-6.171874 0-8.855468zm0 0"/><path d="m128 224h16v16h-16zm0 0"/><path d="m160 224h16v16h-16zm0 0"/><path d="m192 224h16v16h-16zm0 0"/><path d="m224 224h16v16h-16zm0 0"/></g><path d="m80 80v-80l-80 80zm0 0" fill="#eaeef0"/><path d="m0 360h368v104h-368zm0 0" fill="#4398d1"/><path d="m133.128906 397.96875c-3.113281-.097656-6.050781 1.441406-7.738281 4.0625-2.027344 3.371094-2.992187 7.273438-2.773437 11.199219 0 9.894531 3.757812 14.839843 11.277343 14.832031 2.238281.007812 4.464844-.308594 6.609375-.941406 2.171875-.652344 4.308594-1.414063 6.398438-2.289063v11.742188c-4.597656 1.960937-9.558594 2.929687-14.558594 2.851562-6.644531.429688-13.148438-2.03125-17.839844-6.753906-4.472656-5.480469-6.691406-12.457031-6.207031-19.511719-.105469-4.84375.925781-9.648437 3.007813-14.023437 1.890624-3.910157 4.921874-7.152344 8.695312-9.304688 4.054688-2.246093 8.632812-3.367187 13.265625-3.257812 5.511719-.003907 10.957031 1.234375 15.925781 3.625l-4.253906 10.945312c-1.851562-.875-3.753906-1.628906-5.699219-2.257812-1.976562-.621094-4.039062-.933594-6.109375-.917969zm0 0" fill="#fff"/><path d="m204.96875 423.113281c.054688 3.003907-.78125 5.957031-2.402344 8.488281-1.722656 2.558594-4.15625 4.5625-7 5.765626-3.386718 1.4375-7.039062 2.140624-10.71875 2.058593-2.886718.042969-5.773437-.199219-8.617187-.722656-2.503907-.546875-4.933594-1.394531-7.238281-2.519531v-12.367188c2.632812 1.359375 5.402343 2.429688 8.265624 3.199219 2.5625.726563 5.207032 1.113281 7.871094 1.152344 1.585938.125 3.171875-.253907 4.535156-1.078125.914063-.621094 1.453126-1.660156 1.441407-2.761719.015625-.660156-.191407-1.308594-.585938-1.839844-.511719-.648437-1.140625-1.191406-1.855469-1.601562-.851562-.53125-3.132812-1.632813-6.839843-3.300781-2.699219-1.136719-5.238281-2.625-7.542969-4.425782-1.601562-1.339844-2.878906-3.023437-3.730469-4.929687-.847656-2.085938-1.257812-4.324219-1.207031-6.574219-.199219-4.316406 1.734375-8.453125 5.167969-11.070312 4.160156-2.875 9.152343-4.28125 14.199219-4 5.628906.070312 11.175781 1.328124 16.28125 3.695312l-4.257813 10.726562c-3.867187-1.964843-8.105469-3.09375-12.4375-3.3125-1.382813-.109374-2.761719.222657-3.9375.953126-.785156.542968-1.246094 1.445312-1.230469 2.398437.050782 1.101563.632813 2.109375 1.558594 2.707031 2.710938 1.675782 5.554688 3.132813 8.496094 4.359375 3.546875 1.355469 6.714844 3.550781 9.222656 6.398438 1.78125 2.503906 2.683594 5.53125 2.5625 8.601562zm0 0" fill="#fff"/><path d="m260.929688 423.113281c.058593 3.003907-.773438 5.960938-2.402344 8.488281-1.722656 2.558594-4.152344 4.5625-6.992188 5.765626-3.386718 1.4375-7.039062 2.136718-10.71875 2.058593-2.890625.042969-5.773437-.199219-8.617187-.722656-2.503907-.546875-4.933594-1.394531-7.238281-2.519531v-12.367188c2.628906 1.355469 5.398437 2.429688 8.253906 3.199219 2.566406.726563 5.214844 1.113281 7.882812 1.152344 1.585938.125 3.171875-.253907 4.535156-1.078125.910157-.621094 1.453126-1.660156 1.4375-2.761719.015626-.660156-.1875-1.308594-.582031-1.839844-.515625-.644531-1.144531-1.183593-1.855469-1.601562-.863281-.535157-3.136718-1.597657-6.839843-3.300781-2.703125-1.132813-5.238281-2.621094-7.546875-4.425782-1.601563-1.335937-2.875-3.023437-3.726563-4.929687-.851562-2.082031-1.261719-4.324219-1.207031-6.574219-.199219-4.316406 1.734375-8.453125 5.167969-11.070312 4.15625-2.875 9.152343-4.28125 14.199219-4 5.625.070312 11.175781 1.332031 16.28125 3.695312l-4.257813 10.726562c-3.871094-1.964843-8.109375-3.09375-12.445313-3.3125-1.382812-.109374-2.761718.222657-3.9375.953126-.78125.546874-1.242187 1.445312-1.230468 2.398437.058594 1.109375.65625 2.121094 1.597656 2.707031 2.710938 1.671875 5.546875 3.132813 8.488281 4.359375 3.550781 1.351563 6.714844 3.546875 9.222657 6.398438 1.769531 2.507812 2.660156 5.53125 2.53125 8.601562zm0 0" fill="#fff"/><path d="m0 80h64v16h-64zm0 0" fill="#d1d4d6"/><path d="m0 344h368v16h-368zm0 0" fill="#d1d4d6"/></svg>